HIERARCHY
ROOT base
{
	OFFSET 0.0 0.0 0.0
	CHANNELS 6 Xposition Yposition Zposition Zrotation Yrotation Xrotation
	JOINT root
	{
		OFFSET 0 0 0
		CHANNELS 6 Xposition Yposition Zposition Zrotation Yrotation Xrotation
		JOINT chest
		{
			OFFSET 0 4.72302 0
			CHANNELS 3 Zrotation Yrotation Xrotation
			JOINT neck
			{
				OFFSET 0 4.47788 0
				CHANNELS 3 Zrotation Yrotation Xrotation
				End Site
				{
					OFFSET 0.0 0.0 0.0
				}
			}
			JOINT right_shoulder
			{
				OFFSET -0.481 4.87 3.6622
				CHANNELS 3 Zrotation Yrotation Xrotation
				JOINT right_elbow
				{
					OFFSET 0 -5.49576 0
					CHANNELS 3 Zrotation Yrotation Xrotation
					JOINT right_wrist
					{
						OFFSET 0 -5.17894 0
						CHANNELS 3 Zrotation Yrotation Xrotation
						End Site
						{
							OFFSET 0.0 0.0 0.0
						}
					}
				}
			}
			JOINT left_shoulder
			{
				OFFSET -0.481 4.87 -3.6622
				CHANNELS 3 Zrotation Yrotation Xrotation
				JOINT left_elbow
				{
					OFFSET 0 -5.49576 0
					CHANNELS 3 Zrotation Yrotation Xrotation
					JOINT left_wrist
					{
						OFFSET 0 -5.17894 0
						CHANNELS 3 Zrotation Yrotation Xrotation
						End Site
						{
							OFFSET 0.0 0.0 0.0
						}
					}
				}
			}
		}
		JOINT right_hip
		{
			OFFSET 0 0 1.69774
			CHANNELS 3 Zrotation Yrotation Xrotation
			JOINT right_knee
			{
				OFFSET 0 -8.43092 0
				CHANNELS 3 Zrotation Yrotation Xrotation
				JOINT right_ankle
				{
					OFFSET 0 -8.1974 0
					CHANNELS 3 Zrotation Yrotation Xrotation
					End Site
					{
						OFFSET 0.0 0.0 0.0
					}
				}
			}
		}
		JOINT left_hip
		{
			OFFSET 0 0 -1.69774
			CHANNELS 3 Zrotation Yrotation Xrotation
			JOINT left_knee
			{
				OFFSET 0 -8.43092 0
				CHANNELS 3 Zrotation Yrotation Xrotation
				JOINT left_ankle
				{
					OFFSET 0 -8.1974 0
					CHANNELS 3 Zrotation Yrotation Xrotation
					End Site
					{
						OFFSET 0.0 0.0 0.0
					}
				}
			}
		}
	}
	JOINT red_arrow
	{
		OFFSET 0 0 0
		CHANNELS 3 Zrotation Yrotation Xrotation
		End Site
		{
			OFFSET 0.0 0.0 0.0
		}
	}
	JOINT blue_arrow
	{
		OFFSET 0 0 0
		CHANNELS 3 Zrotation Yrotation Xrotation
		End Site
		{
			OFFSET 0.0 0.0 0.0
		}
	}
}
MOTION
Frames: 10
Frame Time: 0.0333333333333333
160.588861632347 0 9.78531896471977 0 9.46232103662127 0 0 17.2383769631386 0 -6.40299040393905 2.18735648171812 -3.3188421507823 -6.26681145675372 -0.198285299264988 -2.65655365592515 3.05917286601722 0.8199118074613 0.620387894462621 1.25192091970322 25.6816691022831 -26.7110213868647 45.3157472371904 0 0 0 0 0 -9.67951928203771 13.0238522176585 8.57656312331899 -2.81523586541737E-06 0 0 0 0 0 -7.20276323146353 -8.13842939754625 -0.663588076954967 -15.6154482729554 0 0 5.17204628861479 20.382266761199 -2.96912350480323 45.6365107412462 3.5956677483859 7.91989368615024 -53.9165092702727 0 0 1.18497560445451 2.6953980785072 4.57265839453349 0 0 0 0 0 0
161.693200288713 0 9.39561084806919 0 9.6071707344912 0 0 17.1441299557686 0 -7.49066424918844 2.72869342951134 -3.72591461412996 -6.34638678756602 -0.339338920986015 -2.95394181881018 1.93018593291926 1.17039529272233 0.280842813585514 1.5306793249671 26.0745974677308 -27.2350336257548 48.5518601300912 0 0 0 0 0 -11.6343668476098 15.0529153899894 7.909447912434 -3.48687151105815E-06 0 0 0 0 0 -9.18132258340732 -8.19041866602211 -0.46528528485187 -16.1391632728498 0 0 -0.59122557297434 19.1974302156996 -5.26364756430248 46.2562778815451 4.98022034936052 7.04059597470658 -42.9302080469151 0 0 2.66951542978839 2.84990731600323 4.12656063515444 0 0 0 0 0 0
162.86723164916 0 8.93793516010046 0 9.76207621531751 0 0 17.0244757652283 0 -8.25478172157256 2.91276358390944 -3.94626705513411 -6.44935919332341 -0.332981184271759 -3.05284273115343 0.219049400438339 1.33613040666262 -0.276115243802459 1.8728893772955 25.555742460938 -27.1161239491782 50.1694709066983 0 0 0 0 0 -12.3415764385799 14.9137701438566 6.6338110475379 -4.36910303037773E-06 0 0 0 0 0 -10.1018216821335 -7.19463211873312 -0.531081472967079 -18.7408608748832 0 0 -9.09804015919947 16.5582781519689 -8.08604387833568 44.4458856489009 5.87996748423043 5.71151093689795 -33.5387628249447 0 0 1.14491134775066 1.72480140334194 2.65362893864185 0 0 0 0 0 0
164.112858664989 0 8.42161831706762 0 9.91793894331969 0 0 16.8437974691391 0 -8.68419405436212 2.92750058255882 -4.04460509689193 -6.19613726613318 -0.179312738132913 -2.81864782070391 -2.14307585708947 1.22241222710165 -1.02533440968261 2.14265642664938 24.3643567298445 -26.6372868194587 50.223555759641 0 0 0 0 0 -11.3541695409584 11.9270633560466 4.87514277267092 -1.27062534609084E-05 0 0 0 0 0 -9.59984770632834 -5.49367441653849 -0.553813010640613 -23.3984078510499 0 0 -23.3391657137205 10.4168090587677 -8.4561307752559 40.4701560312855 6.1552688477854 4.0514460773452 -25.8007510142307 0 0 -3.1306015977386 -0.874630062944329 0.729315721629771 0 0 0 0 0 0
165.242353710532 0 7.88680499643087 0 10.2318830182584 0 0 16.6539153337479 0 -10.4553725662589 5.86659542261264 -3.39601938596176 -4.82927942106643 -1.99809867218851 -2.90809411356812 -5.47439853732458 0.697920569854679 -2.16566636885362 2.12461131317253 21.9632263027945 -24.7480144673691 47.2118965432452 0 0 0 0 0 -7.52668594138282 5.36074834558513 3.32428358094714 -0.000204708529156341 0 0 0 0 0 -6.29042549790871 -5.73533071904745 -0.777428502928897 -29.3620714116306 0 0 -43.1928812359231 1.15709197808177 -8.19142754362397 38.4442297793944 5.07333644974979 0.200104949544437 -23.4837954609588 0 0 -4.68205548412695 -5.20637453520625 4.38984405942159 0 0 0 0 0 0
166.2474706918 0 7.37295019924641 0 10.7126391755327 0 0 16.9175511837006 0 -11.18126689044 8.96382585092158 -2.21098205625168 -4.6255649421085 -2.48565344003939 -2.49085778412343 -8.03312748042172 0.290286595537788 -2.59611612753676 2.37165009336304 20.5245275401502 -24.4925364199063 41.4298818636409 0 0 0 0 0 -4.41831089749181 2.38525388213442 2.15982349576039 -2.58643007958753E-05 0 0 0 0 0 -1.4655385105463 -3.38289074566256 -0.594338492598654 -37.6035791547485 0 0 -51.4933407727461 1.25024117149214 -6.51148732551773 33.7898905511653 4.67584982068898 -3.23106967948577 -21.2511381024231 0 0 -2.11771938406903 -6.98658697040242 5.25041848667965 0 0 0 0 0 0
167.34304523766 0 6.92792030870914 0 11.2560424046815 0 0 17.1544298768044 0 -10.9456395135202 10.1407657260359 -1.69884092572072 -2.94343665676482 -1.70706985056784 -1.7650431994008 -7.53621616971541 0.0988329012496309 -2.25728684676347 2.75123793975022 16.4564482910598 -21.1103536123143 36.2046368844194 0 0 0 0 0 -1.1745005297853 -2.87719368530505 1.68389972199545 0.258881992068349 0 0 0 0 0 4.3705588045073 -0.0424961496927473 0.477205699687321 -49.1368282664624 0 0 -53.9889769190586 3.13250517648549 -6.01767190328097 28.2978713541497 4.71713865960535 -4.33782296302974 -19.351898135769 0 0 0.963080131013799 -8.817935109315 5.3725973601849 0 0 0 0 0 0
168.393878945708 0 6.48965794891119 0 11.8657159575476 0 0 17.3018297195435 0 -10.384885196614 11.3990512694128 -1.05635236483545 -1.69595630738481 -1.38034014106528 -1.08366928751158 -6.18933263385016 -0.0563413508760311 -1.83618940670594 2.52626423459475 14.894237365339 -20.5416671767269 31.1935080903941 0 0 0 0 0 3.13204206181287 -9.60222393314811 2.26062850341807 4.46312051880042 0 0 0 0 0 9.96115775163415 2.02507923026817 0.80906302276946 -60.98563894802 0 0 -51.9505790194109 4.00317393681077 -5.39843345872115 22.6211270413677 4.37627383301211 -5.4226845329012 -17.2260956717036 0 0 3.72233199041811 -10.4578491804011 5.32488950392218 0 0 0 0 0 0
169.432351356745 0 6.11532159000635 0 12.5598753458012 0 0 17.3857272148132 0 -9.77354983730292 13.0041593935494 -0.650504171987918 -0.398768834798444 -1.15465473294943 -0.737518852020924 -5.53662297914231 -0.222498518237229 -1.54756107630288 2.65989519423129 12.4495750162361 -18.3753347746478 25.3405362830499 0 0 0 0 0 7.56054763500782 -17.2158268983738 4.49248361770068 10.9901346670292 0 0 0 0 0 15.2193696851044 2.9954013688993 0.879263633631731 -73.934789689772 0 0 -46.9962544714029 4.92963319626268 -4.38334024856389 17.0255291404538 3.48043438145647 -5.93349236425982 -14.829930414627 0 0 6.18059685914333 -12.2508532115501 4.90500685434341 0 0 0 0 0 0
170.480819040537 0 5.79881943464279 0 13.3050813784202 0 0 17.4456681132317 0 -8.77465561660438 13.9997517624497 -0.692572229334758 -0.269811530110702 -0.856760406444221 -0.417827294745639 -5.1066476217937 -0.451022960130061 -1.31067503232718 2.83277622377172 10.8539678955747 -16.3086344949707 17.1687476958849 0 0 0 0 0 10.1630018373155 -24.8633884877437 9.10591292851401 18.8387152875746 0 0 0 0 0 20.749507133203 3.12043559114499 0.582580903499069 -85.8954617944615 0 0 -38.6030726954343 5.19641859147905 -3.02816851869552 10.4954972103217 1.76815260400802 -5.36299825257225 -10.7782297555769 0 0 7.81534256412853 -12.9870792837928 4.09635184331115 0 0 0 0 0 0
